<svg width="40" height="40" viewBox="0 0 40 40" fill="none" xmlns="http://www.w3.org/2000/svg">
<path d="M23.7539 22.2549H22.9639L22.6839 21.9849C23.6639 20.8449 24.2539 19.3649 24.2539 17.7549C24.2539 14.1649 21.3439 11.2549 17.7539 11.2549C14.1639 11.2549 11.2539 14.1649 11.2539 17.7549C11.2539 21.3449 14.1639 24.2549 17.7539 24.2549C19.3639 24.2549 20.8439 23.6649 21.9839 22.6849L22.2539 22.9649V23.7549L27.2539 28.7449L28.7439 27.2549L23.7539 22.2549ZM17.7539 22.2549C15.2639 22.2549 13.2539 20.2449 13.2539 17.7549C13.2539 15.2649 15.2639 13.2549 17.7539 13.2549C20.2439 13.2549 22.2539 15.2649 22.2539 17.7549C22.2539 20.2449 20.2439 22.2549 17.7539 22.2549Z" fill="#0C0C0C"/>
</svg>
